<?xml version="1.0" encoding="UTF-8" standalone="no"?>
<!DOCTYPE svg PUBLIC "-//W3C//DTD SVG 1.1//EN"
 "http://www.w3.org/Graphics/SVG/1.1/DTD/svg11.dtd">
<!-- Generated by graphviz version 2.40.1 (20161225.0304)
 -->
<!-- Title: G Pages: 1 -->
<svg width="1560pt" height="430pt"
 viewBox="0.00 0.00 1560.36 430.10" xmlns="http://www.w3.org/2000/svg" xmlns:xlink="http://www.w3.org/1999/xlink">
<g id="graph0" class="graph" transform="scale(1 1) rotate(0) translate(0 430.0986)">
<title>G</title>
<polygon fill="#d3d3d3" stroke="transparent" points="0,0 0,-430.0986 1560.3637,-430.0986 1560.3637,0 0,0"/>
<text text-anchor="middle" x="29.0137" y="-8.8986" font-family="Arial" font-size="14.00" fill="#000000">netstat</text>
<g id="clust1" class="cluster">
<title>cluster</title>
<polygon fill="#e6ecfa" stroke="#000000" stroke-width=".5" points="8,-32.0986 8,-422.0986 1552.3637,-422.0986 1552.3637,-32.0986 8,-32.0986"/>
<text text-anchor="middle" x="780.1818" y="-403.6986" font-family="Arial" font-size="18.00" fill="#000000">pod&#45;b</text>
</g>
<!-- pod&#45;a1 -->
<g id="node1" class="node">
<title>pod&#45;a1</title>
<ellipse fill="#add8e6" stroke="#000000" cx="48.6076" cy="-361.0986" rx="32.7156" ry="18"/>
<text text-anchor="middle" x="48.6076" y="-358.406" font-family="Verdana" font-size="14.00" fill="#000000">pod&#45;a1</text>
</g>
<!-- inbound&#45;tcp -->
<g id="node11" class="node">
<title>inbound&#45;tcp</title>
<polygon fill="#ffff00" stroke="#000000" stroke-width=".5" points="411.1478,-296.0986 337.1039,-278.0986 411.1478,-260.0986 485.1916,-278.0986 411.1478,-296.0986"/>
<text text-anchor="middle" x="411.1478" y="-275.406" font-family="Verdana" font-size="14.00" fill="#000000">inbound&#45;tcp</text>
</g>
<!-- pod&#45;a1&#45;&gt;inbound&#45;tcp -->
<g id="edge1" class="edge">
<title>pod&#45;a1&#45;&gt;inbound&#45;tcp</title>
<path fill="none" stroke="#8b4513" d="M81.4208,-361.0986C93.1837,-361.0986 106.5438,-361.0986 118.7152,-361.0986 118.7152,-361.0986 118.7152,-361.0986 295.7973,-361.0986 336.8041,-361.0986 373.1875,-326.1108 393.6651,-301.5676"/>
<polygon fill="#8b4513" stroke="#8b4513" points="396.4444,-303.6965 399.9836,-293.7103 390.9894,-299.3098 396.4444,-303.6965"/>
<text text-anchor="middle" x="207.2563" y="-375.4986" font-family="Times,serif" font-size="12.00" fill="#000000">ESTABLISH=50</text>
<text text-anchor="middle" x="207.2563" y="-363.4986" font-family="Times,serif" font-size="12.00" fill="#000000">TIME_WAIT=10000</text>
</g>
<!-- pod&#45;a2 -->
<g id="node2" class="node">
<title>pod&#45;a2</title>
<ellipse fill="#add8e6" stroke="#000000" cx="48.6076" cy="-287.0986" rx="32.7156" ry="18"/>
<text text-anchor="middle" x="48.6076" y="-284.406" font-family="Verdana" font-size="14.00" fill="#000000">pod&#45;a2</text>
</g>
<!-- pod&#45;a2&#45;&gt;inbound&#45;tcp -->
<g id="edge2" class="edge">
<title>pod&#45;a2&#45;&gt;inbound&#45;tcp</title>
<path fill="none" stroke="#8b4513" d="M81.4208,-287.0986C93.1837,-287.0986 106.5438,-287.0986 118.7152,-287.0986 118.7152,-287.0986 118.7152,-287.0986 295.7973,-287.0986 313.5123,-287.0986 332.7114,-286.0305 350.2696,-284.6302"/>
<polygon fill="#8b4513" stroke="#8b4513" points="350.7254,-288.1043 360.3944,-283.7729 350.1347,-281.1292 350.7254,-288.1043"/>
<text text-anchor="middle" x="207.2563" y="-301.4986" font-family="Times,serif" font-size="12.00" fill="#000000">ESTABLISH=50</text>
<text text-anchor="middle" x="207.2563" y="-289.4986" font-family="Times,serif" font-size="12.00" fill="#000000">TIME_WAIT=10000</text>
</g>
<!-- pod&#45;a3 -->
<g id="node3" class="node">
<title>pod&#45;a3</title>
<ellipse fill="#add8e6" stroke="#000000" cx="48.6076" cy="-213.0986" rx="32.7156" ry="18"/>
<text text-anchor="middle" x="48.6076" y="-210.406" font-family="Verdana" font-size="14.00" fill="#000000">pod&#45;a3</text>
</g>
<!-- pod&#45;a3&#45;&gt;inbound&#45;tcp -->
<g id="edge3" class="edge">
<title>pod&#45;a3&#45;&gt;inbound&#45;tcp</title>
<path fill="none" stroke="#8b4513" d="M81.4208,-213.0986C93.1837,-213.0986 106.5438,-213.0986 118.7152,-213.0986 118.7152,-213.0986 118.7152,-213.0986 295.7973,-213.0986 331.8748,-213.0986 367.0722,-237.5302 388.9081,-256.4362"/>
<polygon fill="#8b4513" stroke="#8b4513" points="386.8203,-259.2658 396.5967,-263.3491 391.5005,-254.0604 386.8203,-259.2658"/>
<text text-anchor="middle" x="207.2563" y="-227.4986" font-family="Times,serif" font-size="12.00" fill="#000000">ESTABLISH=50</text>
<text text-anchor="middle" x="207.2563" y="-215.4986" font-family="Times,serif" font-size="12.00" fill="#000000">TIME_WAIT=10000</text>
</g>
<!-- pod&#45;a4 -->
<g id="node4" class="node">
<title>pod&#45;a4</title>
<ellipse fill="#add8e6" stroke="#000000" cx="48.6076" cy="-139.0986" rx="32.7156" ry="18"/>
<text text-anchor="middle" x="48.6076" y="-136.406" font-family="Verdana" font-size="14.00" fill="#000000">pod&#45;a4</text>
</g>
<!-- inbound&#45;udp -->
<g id="node12" class="node">
<title>inbound&#45;udp</title>
<polygon fill="#ffff00" stroke="#000000" stroke-width=".5" points="411.1478,-157.0986 333.4465,-139.0986 411.1478,-121.0986 488.849,-139.0986 411.1478,-157.0986"/>
<text text-anchor="middle" x="411.1478" y="-136.406" font-family="Verdana" font-size="14.00" fill="#000000">inbound&#45;udp</text>
</g>
<!-- pod&#45;a4&#45;&gt;inbound&#45;udp -->
<g id="edge4" class="edge">
<title>pod&#45;a4&#45;&gt;inbound&#45;udp</title>
<path fill="none" stroke="#8b4513" d="M81.4208,-139.0986C93.1837,-139.0986 106.5438,-139.0986 118.7152,-139.0986 118.7152,-139.0986 118.7152,-139.0986 295.7973,-139.0986 304.6948,-139.0986 313.9784,-139.0986 323.2461,-139.0986"/>
<polygon fill="#8b4513" stroke="#8b4513" points="323.2772,-142.5987 333.2772,-139.0986 323.2771,-135.5987 323.2772,-142.5987"/>
<text text-anchor="middle" x="207.2563" y="-153.4986" font-family="Times,serif" font-size="12.00" fill="#000000">ESTABLISH=50</text>
<text text-anchor="middle" x="207.2563" y="-141.4986" font-family="Times,serif" font-size="12.00" fill="#000000">TIME_WAIT=10000</text>
</g>
<!-- pod&#45;a5 -->
<g id="node5" class="node">
<title>pod&#45;a5</title>
<ellipse fill="#add8e6" stroke="#000000" cx="48.6076" cy="-65.0986" rx="32.7156" ry="18"/>
<text text-anchor="middle" x="48.6076" y="-62.406" font-family="Verdana" font-size="14.00" fill="#000000">pod&#45;a5</text>
</g>
<!-- pod&#45;a5&#45;&gt;inbound&#45;udp -->
<g id="edge5" class="edge">
<title>pod&#45;a5&#45;&gt;inbound&#45;udp</title>
<path fill="none" stroke="#8b4513" d="M81.4208,-65.0986C93.1837,-65.0986 106.5438,-65.0986 118.7152,-65.0986 118.7152,-65.0986 118.7152,-65.0986 295.7973,-65.0986 334.3202,-65.0986 370.2557,-94.6992 391.4671,-116.4579"/>
<polygon fill="#8b4513" stroke="#8b4513" points="388.9368,-118.8763 398.3359,-123.7658 394.0375,-114.0821 388.9368,-118.8763"/>
<text text-anchor="middle" x="207.2563" y="-79.4986" font-family="Times,serif" font-size="12.00" fill="#000000">ESTABLISH=50</text>
<text text-anchor="middle" x="207.2563" y="-67.4986" font-family="Times,serif" font-size="12.00" fill="#000000">TIME_WAIT=10000</text>
</g>
<!-- pod&#45;b -->
<g id="node6" class="node">
<title>pod&#45;b</title>
<ellipse fill="#add8e6" stroke="#000000" cx="768.8941" cy="-257.0986" rx="27.6288" ry="18"/>
<text text-anchor="middle" x="768.8941" y="-254.406" font-family="Verdana" font-size="14.00" fill="#000000">pod&#45;b</text>
</g>
<!-- outbound&#45;tcp -->
<g id="node13" class="node">
<title>outbound&#45;tcp</title>
<polygon fill="#ffff00" stroke="#000000" stroke-width=".5" points="1134.8021,-243.0986 1052.4344,-225.0986 1134.8021,-207.0986 1217.1698,-225.0986 1134.8021,-243.0986"/>
<text text-anchor="middle" x="1134.8021" y="-222.406" font-family="Verdana" font-size="14.00" fill="#000000">outbound&#45;tcp</text>
</g>
<!-- pod&#45;b&#45;&gt;outbound&#45;tcp -->
<g id="edge9" class="edge">
<title>pod&#45;b&#45;&gt;outbound&#45;tcp</title>
<path fill="none" stroke="#8b4513" d="M790.3033,-245.4639C802.7467,-239.7591 818.9403,-234.0986 834.2079,-234.0986 834.2079,-234.0986 834.2079,-234.0986 1011.2899,-234.0986 1029.9747,-234.0986 1050.2075,-233.0614 1068.784,-231.6912"/>
<polygon fill="#8b4513" stroke="#8b4513" points="1069.2164,-235.1682 1078.9135,-230.9002 1068.6713,-228.1895 1069.2164,-235.1682"/>
<text text-anchor="middle" x="922.7489" y="-248.4986" font-family="Times,serif" font-size="12.00" fill="#000000">ESTABLISH=50</text>
<text text-anchor="middle" x="922.7489" y="-236.4986" font-family="Times,serif" font-size="12.00" fill="#000000">TIME_WAIT=10000</text>
</g>
<!-- outbound&#45;udp -->
<g id="node14" class="node">
<title>outbound&#45;udp</title>
<polygon fill="#ffff00" stroke="#000000" stroke-width=".5" points="1134.8021,-326.0986 1048.7777,-308.0986 1134.8021,-290.0986 1220.8265,-308.0986 1134.8021,-326.0986"/>
<text text-anchor="middle" x="1134.8021" y="-305.406" font-family="Verdana" font-size="14.00" fill="#000000">outbound&#45;udp</text>
</g>
<!-- pod&#45;b&#45;&gt;outbound&#45;udp -->
<g id="edge8" class="edge">
<title>pod&#45;b&#45;&gt;outbound&#45;udp</title>
<path fill="none" stroke="#8b4513" d="M780.287,-273.7979C791.9252,-288.6717 811.4771,-308.0986 834.2079,-308.0986 834.2079,-308.0986 834.2079,-308.0986 1011.2899,-308.0986 1020.1871,-308.0986 1029.4448,-308.0986 1038.7125,-308.0986"/>
<polygon fill="#8b4513" stroke="#8b4513" points="1038.7562,-311.5987 1048.7561,-308.0986 1038.7561,-304.5987 1038.7562,-311.5987"/>
<text text-anchor="middle" x="922.7489" y="-322.4986" font-family="Times,serif" font-size="12.00" fill="#000000">ESTABLISH=50</text>
<text text-anchor="middle" x="922.7489" y="-310.4986" font-family="Times,serif" font-size="12.00" fill="#000000">TIME_WAIT=10000</text>
</g>
<!-- pod&#45;c1 -->
<g id="node7" class="node">
<title>pod&#45;c1</title>
<ellipse fill="#add8e6" stroke="#000000" cx="1508.63" cy="-95.0986" rx="32.1061" ry="18"/>
<text text-anchor="middle" x="1508.63" y="-92.406" font-family="Verdana" font-size="14.00" fill="#000000">pod&#45;c1</text>
</g>
<!-- coredns -->
<g id="node8" class="node">
<title>coredns</title>
<ellipse fill="#add8e6" stroke="#000000" cx="1508.63" cy="-317.0986" rx="35.9689" ry="18"/>
<text text-anchor="middle" x="1508.63" y="-314.406" font-family="Verdana" font-size="14.00" fill="#000000">coredns</text>
</g>
<!-- mysql -->
<g id="node9" class="node">
<title>mysql</title>
<ellipse fill="#add8e6" stroke="#000000" cx="1508.63" cy="-169.0986" rx="28.3111" ry="18"/>
<text text-anchor="middle" x="1508.63" y="-166.406" font-family="Verdana" font-size="14.00" fill="#000000">mysql</text>
</g>
<!-- redis -->
<g id="node10" class="node">
<title>redis</title>
<ellipse fill="#add8e6" stroke="#000000" cx="1508.63" cy="-243.0986" rx="27" ry="18"/>
<text text-anchor="middle" x="1508.63" y="-240.406" font-family="Verdana" font-size="14.00" fill="#000000">redis</text>
</g>
<!-- inbound&#45;tcp&#45;&gt;pod&#45;b -->
<g id="edge6" class="edge">
<title>inbound&#45;tcp&#45;&gt;pod&#45;b</title>
<path fill="none" stroke="#8b4513" d="M460.1798,-271.9649C480.6454,-269.8949 504.6884,-268.0986 526.4982,-268.0986 526.4982,-268.0986 526.4982,-268.0986 703.5803,-268.0986 713.1225,-268.0986 723.3415,-266.9428 732.7957,-265.3804"/>
<polygon fill="#8b4513" stroke="#8b4513" points="733.4844,-268.8125 742.6862,-263.561 732.2179,-261.928 733.4844,-268.8125"/>
<text text-anchor="middle" x="615.0392" y="-282.4986" font-family="Times,serif" font-size="12.00" fill="#000000">ESTABLISH=50</text>
<text text-anchor="middle" x="615.0392" y="-270.4986" font-family="Times,serif" font-size="12.00" fill="#000000">TIME_WAIT=10000</text>
</g>
<!-- inbound&#45;udp&#45;&gt;pod&#45;b -->
<g id="edge7" class="edge">
<title>inbound&#45;udp&#45;&gt;pod&#45;b</title>
<path fill="none" stroke="#8b4513" d="M449.8903,-148.2041C472.1674,-152.6687 500.7573,-157.0986 526.4982,-157.0986 526.4982,-157.0986 526.4982,-157.0986 703.5803,-157.0986 738.0816,-157.0986 755.3252,-199.3399 763.17,-228.9145"/>
<polygon fill="#8b4513" stroke="#8b4513" points="759.8,-229.8685 765.5657,-238.7571 766.6014,-228.213 759.8,-229.8685"/>
<text text-anchor="middle" x="615.0392" y="-171.4986" font-family="Times,serif" font-size="12.00" fill="#000000">ESTABLISH=50</text>
<text text-anchor="middle" x="615.0392" y="-159.4986" font-family="Times,serif" font-size="12.00" fill="#000000">TIME_WAIT=10000</text>
</g>
<!-- outbound&#45;tcp&#45;&gt;pod&#45;c1 -->
<g id="edge12" class="edge">
<title>outbound&#45;tcp&#45;&gt;pod&#45;c1</title>
<path fill="none" stroke="#8b4513" d="M1141.3435,-208.3695C1156.2948,-173.2586 1196.5177,-95.0986 1258.3143,-95.0986 1258.3143,-95.0986 1258.3143,-95.0986 1435.3963,-95.0986 1445.3988,-95.0986 1456.1697,-95.0986 1466.2922,-95.0986"/>
<polygon fill="#8b4513" stroke="#8b4513" points="1466.5468,-98.5987 1476.5467,-95.0986 1466.5467,-91.5987 1466.5468,-98.5987"/>
<text text-anchor="middle" x="1346.8553" y="-109.4986" font-family="Times,serif" font-size="12.00" fill="#000000">ESTABLISH=50</text>
<text text-anchor="middle" x="1346.8553" y="-97.4986" font-family="Times,serif" font-size="12.00" fill="#000000">TIME_WAIT=10000</text>
</g>
<!-- outbound&#45;tcp&#45;&gt;mysql -->
<g id="edge10" class="edge">
<title>outbound&#45;tcp&#45;&gt;mysql</title>
<path fill="none" stroke="#8b4513" d="M1152.8893,-210.9675C1175.9834,-194.3779 1217.8183,-169.0986 1258.3143,-169.0986 1258.3143,-169.0986 1258.3143,-169.0986 1435.3963,-169.0986 1446.7854,-169.0986 1459.1709,-169.0986 1470.4609,-169.0986"/>
<polygon fill="#8b4513" stroke="#8b4513" points="1470.4613,-172.5987 1480.4613,-169.0986 1470.4612,-165.5987 1470.4613,-172.5987"/>
<text text-anchor="middle" x="1346.8553" y="-183.4986" font-family="Times,serif" font-size="12.00" fill="#000000">ESTABLISH=50</text>
<text text-anchor="middle" x="1346.8553" y="-171.4986" font-family="Times,serif" font-size="12.00" fill="#000000">TIME_WAIT=10000</text>
</g>
<!-- outbound&#45;tcp&#45;&gt;redis -->
<g id="edge11" class="edge">
<title>outbound&#45;tcp&#45;&gt;redis</title>
<path fill="none" stroke="#8b4513" d="M1176.0363,-234.1514C1199.9403,-238.6337 1230.6855,-243.0986 1258.3143,-243.0986 1258.3143,-243.0986 1258.3143,-243.0986 1435.3963,-243.0986 1447.0775,-243.0986 1459.8067,-243.0986 1471.3271,-243.0986"/>
<polygon fill="#8b4513" stroke="#8b4513" points="1471.5026,-246.5987 1481.5026,-243.0986 1471.5026,-239.5987 1471.5026,-246.5987"/>
<text text-anchor="middle" x="1346.8553" y="-257.4986" font-family="Times,serif" font-size="12.00" fill="#000000">ESTABLISH=50</text>
<text text-anchor="middle" x="1346.8553" y="-245.4986" font-family="Times,serif" font-size="12.00" fill="#000000">TIME_WAIT=10000</text>
</g>
<!-- outbound&#45;udp&#45;&gt;coredns -->
<g id="edge13" class="edge">
<title>outbound&#45;udp&#45;&gt;coredns</title>
<path fill="none" stroke="#8b4513" d="M1192.5474,-314.0516C1213.2647,-315.7253 1236.8143,-317.0986 1258.3143,-317.0986 1258.3143,-317.0986 1258.3143,-317.0986 1435.3963,-317.0986 1444.2644,-317.0986 1453.7366,-317.0986 1462.8254,-317.0986"/>
<polygon fill="#8b4513" stroke="#8b4513" points="1462.8714,-320.5987 1472.8713,-317.0986 1462.8713,-313.5987 1462.8714,-320.5987"/>
<text text-anchor="middle" x="1346.8553" y="-331.4986" font-family="Times,serif" font-size="12.00" fill="#000000">ESTABLISH=50</text>
<text text-anchor="middle" x="1346.8553" y="-319.4986" font-family="Times,serif" font-size="12.00" fill="#000000">TIME_WAIT=10000</text>
</g>
</g>
</svg>
